<!-- Generated by IcoMoon.io -->
<svg version="1.1" xmlns="http://www.w3.org/2000/svg" width="50" height="50" viewBox="0 0 50 50">
<path fill="#009dff" d="M28.248 31.068l-2.637-0.887c-2.312-0.778-3.86-2.867-3.86-5.213v-5.239l2.637 0.887c2.312 0.778 3.86 2.867 3.86 5.213v5.239z"></path>
<path fill="#009dff" d="M12.687 6.329c0.035-0.021 0.074-0.032 0.115-0.032 0.12 0 0.217 0.093 0.217 0.207v3.433c0 0.205 0.135 0.388 0.338 0.456l5.51 1.853c0.113 0.038 0.237-0.019 0.276-0.127 0.008-0.022 0.012-0.045 0.012-0.069v-7.968c0-0.256 0.183-0.478 0.442-0.537 7.021-1.614 14.426 0.001 20.023 4.366 0.42 0.327 1.035 0.28 1.394-0.108 0.37-0.4 0.332-1.011-0.085-1.365-0.010-0.009-0.021-0.018-0.032-0.026-9.255-7.217-22.537-7.217-31.792 0-0.433 0.337-0.498 0.947-0.145 1.36 0.009 0.010 0.018 0.021 0.027 0.031 0.359 0.388 0.975 0.435 1.394 0.108 0.734-0.572 1.503-1.101 2.305-1.583z"></path>
<path fill="#009dff" d="M9.104 43.738c-0.433-0.337-0.498-0.946-0.145-1.36s0.989-0.476 1.422-0.139c3.427 2.673 7.582 4.35 11.974 4.833 0.554 0.061 0.952 0.541 0.888 1.071s-0.565 0.911-1.119 0.85c-4.775-0.526-9.294-2.349-13.020-5.255z"></path>
<path fill="#009dff" d="M11.502 18.484v2.634l-2.331-0.784c-1.301-0.438-2.171-1.613-2.171-2.932v-2.634l2.331 0.784c1.301 0.437 2.171 1.613 2.171 2.932z"></path>
<path fill="#009dff" d="M38.498 20.402v2.634l2.331-0.784c1.301-0.438 2.171-1.613 2.171-2.932v-2.634l-2.331 0.784c-1.301 0.438-2.171 1.613-2.171 2.932z"></path>
<path fill="#009dff" d="M30.847 14.633v31.435c0 0.256-0.183 0.478-0.443 0.537-0.909 0.209-1.83 0.365-2.759 0.467-0.538 0.059-0.932 0.514-0.892 1.031 0.040 0.533 0.525 0.933 1.081 0.894 0.014-0.001 0.028-0.002 0.042-0.004 4.775-0.526 9.294-2.349 13.020-5.255 0.433-0.337 0.498-0.946 0.145-1.36-0.009-0.010-0.018-0.021-0.027-0.031-0.36-0.388-0.975-0.435-1.394-0.108-0.768 0.599-1.575 1.15-2.416 1.649-0.023 0.014-0.049 0.021-0.076 0.021-0.080 0-0.144-0.062-0.144-0.138v-11.804c0-0.235 0.155-0.444 0.386-0.521l3.903-1.313c1.036-0.348 1.729-1.284 1.729-2.335v-0.809l-4.289 1.442c-0.746 0.251-1.331 0.815-1.588 1.53-0.010 0.028-0.037 0.047-0.068 0.047-0.040 0-0.072-0.031-0.072-0.069v-15.307c0-1.621-1.373-2.935-3.068-2.935s-3.068 1.314-3.068 2.935z"></path>
<path fill="#009dff" d="M12.877 29.962c0.013 0.036 0.054 0.055 0.092 0.043 0.029-0.010 0.049-0.036 0.049-0.065v-17.010c0-0.023 0.004-0.046 0.012-0.069 0.040-0.108 0.163-0.165 0.276-0.127l5.509 1.853c0.202 0.068 0.338 0.251 0.338 0.456v21.071c0 1.621-1.373 2.935-3.068 2.935s-3.068-1.314-3.068-2.935v-4.147c0-0.235-0.155-0.444-0.386-0.521l-3.903-1.313c-1.036-0.348-1.729-1.284-1.729-2.335v-0.809l4.289 1.442c0.746 0.251 1.331 0.815 1.588 1.53z"></path>
</svg>
